<mxfile host="app.diagrams.net" modified="2022-05-01T09:54:09.032Z" agent="5.0 (Windows NT 10.0; Win64; x64) AppleWebKit/537.36 (KHTML, like Gecko) Chrome/100.0.4896.127 Safari/537.36" etag="J0U5ylqliLx2aE85usrp" version="17.4.6" type="github">
  <diagram id="C5RBs43oDa-KdzZeNtuy" name="Page-1">
    <mxGraphModel dx="1483" dy="781" grid="1" gridSize="10" guides="1" tooltips="1" connect="1" arrows="1" fold="1" page="1" pageScale="1" pageWidth="827" pageHeight="1169" math="0" shadow="0">
      <root>
        <mxCell id="WIyWlLk6GJQsqaUBKTNV-0" />
        <mxCell id="WIyWlLk6GJQsqaUBKTNV-1" parent="WIyWlLk6GJQsqaUBKTNV-0" />
        <mxCell id="qGJqeF6LjcEUlHx-GQMv-274" value="Car" style="swimlane;fontStyle=1;align=center;verticalAlign=top;childLayout=stackLayout;horizontal=1;startSize=26;horizontalStack=0;resizeParent=1;resizeParentMax=0;resizeLast=0;collapsible=1;marginBottom=0;" vertex="1" parent="WIyWlLk6GJQsqaUBKTNV-1">
          <mxGeometry x="254" y="100" width="160" height="424" as="geometry" />
        </mxCell>
        <mxCell id="qGJqeF6LjcEUlHx-GQMv-275" value="- weight: int&#xa;" style="text;strokeColor=none;fillColor=none;align=left;verticalAlign=top;spacingLeft=4;spacingRight=4;overflow=hidden;rotatable=0;points=[[0,0.5],[1,0.5]];portConstraint=eastwest;" vertex="1" parent="qGJqeF6LjcEUlHx-GQMv-274">
          <mxGeometry y="26" width="160" height="26" as="geometry" />
        </mxCell>
        <mxCell id="qGJqeF6LjcEUlHx-GQMv-276" value="- speed: int&#xa;" style="text;strokeColor=none;fillColor=none;align=left;verticalAlign=top;spacingLeft=4;spacingRight=4;overflow=hidden;rotatable=0;points=[[0,0.5],[1,0.5]];portConstraint=eastwest;" vertex="1" parent="qGJqeF6LjcEUlHx-GQMv-274">
          <mxGeometry y="52" width="160" height="26" as="geometry" />
        </mxCell>
        <mxCell id="qGJqeF6LjcEUlHx-GQMv-277" value="- engineOn: boolean&#xa;" style="text;strokeColor=none;fillColor=none;align=left;verticalAlign=top;spacingLeft=4;spacingRight=4;overflow=hidden;rotatable=0;points=[[0,0.5],[1,0.5]];portConstraint=eastwest;" vertex="1" parent="qGJqeF6LjcEUlHx-GQMv-274">
          <mxGeometry y="78" width="160" height="26" as="geometry" />
        </mxCell>
        <mxCell id="qGJqeF6LjcEUlHx-GQMv-278" value="- sideMirrorOn: boolean&#xa;" style="text;strokeColor=none;fillColor=none;align=left;verticalAlign=top;spacingLeft=4;spacingRight=4;overflow=hidden;rotatable=0;points=[[0,0.5],[1,0.5]];portConstraint=eastwest;" vertex="1" parent="qGJqeF6LjcEUlHx-GQMv-274">
          <mxGeometry y="104" width="160" height="26" as="geometry" />
        </mxCell>
        <mxCell id="qGJqeF6LjcEUlHx-GQMv-279" value="- lightOn: boolean&#xa;" style="text;strokeColor=none;fillColor=none;align=left;verticalAlign=top;spacingLeft=4;spacingRight=4;overflow=hidden;rotatable=0;points=[[0,0.5],[1,0.5]];portConstraint=eastwest;" vertex="1" parent="qGJqeF6LjcEUlHx-GQMv-274">
          <mxGeometry y="130" width="160" height="26" as="geometry" />
        </mxCell>
        <mxCell id="qGJqeF6LjcEUlHx-GQMv-280" value="- direction: int&#xa;" style="text;strokeColor=none;fillColor=none;align=left;verticalAlign=top;spacingLeft=4;spacingRight=4;overflow=hidden;rotatable=0;points=[[0,0.5],[1,0.5]];portConstraint=eastwest;" vertex="1" parent="qGJqeF6LjcEUlHx-GQMv-274">
          <mxGeometry y="156" width="160" height="26" as="geometry" />
        </mxCell>
        <mxCell id="qGJqeF6LjcEUlHx-GQMv-281" value="" style="line;strokeWidth=1;fillColor=none;align=left;verticalAlign=middle;spacingTop=-1;spacingLeft=3;spacingRight=3;rotatable=0;labelPosition=right;points=[];portConstraint=eastwest;" vertex="1" parent="qGJqeF6LjcEUlHx-GQMv-274">
          <mxGeometry y="182" width="160" height="8" as="geometry" />
        </mxCell>
        <mxCell id="qGJqeF6LjcEUlHx-GQMv-282" value="+ startEngine(): void" style="text;strokeColor=none;fillColor=none;align=left;verticalAlign=top;spacingLeft=4;spacingRight=4;overflow=hidden;rotatable=0;points=[[0,0.5],[1,0.5]];portConstraint=eastwest;" vertex="1" parent="qGJqeF6LjcEUlHx-GQMv-274">
          <mxGeometry y="190" width="160" height="26" as="geometry" />
        </mxCell>
        <mxCell id="qGJqeF6LjcEUlHx-GQMv-283" value="+ stopEngine(): void" style="text;strokeColor=none;fillColor=none;align=left;verticalAlign=top;spacingLeft=4;spacingRight=4;overflow=hidden;rotatable=0;points=[[0,0.5],[1,0.5]];portConstraint=eastwest;" vertex="1" parent="qGJqeF6LjcEUlHx-GQMv-274">
          <mxGeometry y="216" width="160" height="26" as="geometry" />
        </mxCell>
        <mxCell id="qGJqeF6LjcEUlHx-GQMv-284" value="+ sideMirrorTurnOn(): void" style="text;strokeColor=none;fillColor=none;align=left;verticalAlign=top;spacingLeft=4;spacingRight=4;overflow=hidden;rotatable=0;points=[[0,0.5],[1,0.5]];portConstraint=eastwest;" vertex="1" parent="qGJqeF6LjcEUlHx-GQMv-274">
          <mxGeometry y="242" width="160" height="26" as="geometry" />
        </mxCell>
        <mxCell id="qGJqeF6LjcEUlHx-GQMv-285" value="+ sideMirrorTurnOff(): void" style="text;strokeColor=none;fillColor=none;align=left;verticalAlign=top;spacingLeft=4;spacingRight=4;overflow=hidden;rotatable=0;points=[[0,0.5],[1,0.5]];portConstraint=eastwest;" vertex="1" parent="qGJqeF6LjcEUlHx-GQMv-274">
          <mxGeometry y="268" width="160" height="26" as="geometry" />
        </mxCell>
        <mxCell id="qGJqeF6LjcEUlHx-GQMv-286" value="+ currentSpeed(): int" style="text;strokeColor=none;fillColor=none;align=left;verticalAlign=top;spacingLeft=4;spacingRight=4;overflow=hidden;rotatable=0;points=[[0,0.5],[1,0.5]];portConstraint=eastwest;" vertex="1" parent="qGJqeF6LjcEUlHx-GQMv-274">
          <mxGeometry y="294" width="160" height="26" as="geometry" />
        </mxCell>
        <mxCell id="qGJqeF6LjcEUlHx-GQMv-287" value="+ accelerate(): void" style="text;strokeColor=none;fillColor=none;align=left;verticalAlign=top;spacingLeft=4;spacingRight=4;overflow=hidden;rotatable=0;points=[[0,0.5],[1,0.5]];portConstraint=eastwest;" vertex="1" parent="qGJqeF6LjcEUlHx-GQMv-274">
          <mxGeometry y="320" width="160" height="26" as="geometry" />
        </mxCell>
        <mxCell id="qGJqeF6LjcEUlHx-GQMv-288" value="+ brake(): void" style="text;strokeColor=none;fillColor=none;align=left;verticalAlign=top;spacingLeft=4;spacingRight=4;overflow=hidden;rotatable=0;points=[[0,0.5],[1,0.5]];portConstraint=eastwest;" vertex="1" parent="qGJqeF6LjcEUlHx-GQMv-274">
          <mxGeometry y="346" width="160" height="26" as="geometry" />
        </mxCell>
        <mxCell id="qGJqeF6LjcEUlHx-GQMv-289" value="+ turnRight(): void" style="text;strokeColor=none;fillColor=none;align=left;verticalAlign=top;spacingLeft=4;spacingRight=4;overflow=hidden;rotatable=0;points=[[0,0.5],[1,0.5]];portConstraint=eastwest;" vertex="1" parent="qGJqeF6LjcEUlHx-GQMv-274">
          <mxGeometry y="372" width="160" height="26" as="geometry" />
        </mxCell>
        <mxCell id="qGJqeF6LjcEUlHx-GQMv-290" value="+ turnLeft(): void" style="text;strokeColor=none;fillColor=none;align=left;verticalAlign=top;spacingLeft=4;spacingRight=4;overflow=hidden;rotatable=0;points=[[0,0.5],[1,0.5]];portConstraint=eastwest;" vertex="1" parent="qGJqeF6LjcEUlHx-GQMv-274">
          <mxGeometry y="398" width="160" height="26" as="geometry" />
        </mxCell>
        <mxCell id="qGJqeF6LjcEUlHx-GQMv-291" value="ElectricCar" style="swimlane;fontStyle=1;align=center;verticalAlign=top;childLayout=stackLayout;horizontal=1;startSize=26;horizontalStack=0;resizeParent=1;resizeParentMax=0;resizeLast=0;collapsible=1;marginBottom=0;" vertex="1" parent="WIyWlLk6GJQsqaUBKTNV-1">
          <mxGeometry x="50" y="600" width="160" height="86" as="geometry" />
        </mxCell>
        <mxCell id="qGJqeF6LjcEUlHx-GQMv-292" value="- battery: int" style="text;strokeColor=none;fillColor=none;align=left;verticalAlign=top;spacingLeft=4;spacingRight=4;overflow=hidden;rotatable=0;points=[[0,0.5],[1,0.5]];portConstraint=eastwest;" vertex="1" parent="qGJqeF6LjcEUlHx-GQMv-291">
          <mxGeometry y="26" width="160" height="26" as="geometry" />
        </mxCell>
        <mxCell id="qGJqeF6LjcEUlHx-GQMv-293" value="" style="line;strokeWidth=1;fillColor=none;align=left;verticalAlign=middle;spacingTop=-1;spacingLeft=3;spacingRight=3;rotatable=0;labelPosition=right;points=[];portConstraint=eastwest;" vertex="1" parent="qGJqeF6LjcEUlHx-GQMv-291">
          <mxGeometry y="52" width="160" height="8" as="geometry" />
        </mxCell>
        <mxCell id="qGJqeF6LjcEUlHx-GQMv-294" value="+ charging(int): void" style="text;strokeColor=none;fillColor=none;align=left;verticalAlign=top;spacingLeft=4;spacingRight=4;overflow=hidden;rotatable=0;points=[[0,0.5],[1,0.5]];portConstraint=eastwest;" vertex="1" parent="qGJqeF6LjcEUlHx-GQMv-291">
          <mxGeometry y="60" width="160" height="26" as="geometry" />
        </mxCell>
        <mxCell id="qGJqeF6LjcEUlHx-GQMv-295" value="GasonlineCar" style="swimlane;fontStyle=1;align=center;verticalAlign=top;childLayout=stackLayout;horizontal=1;startSize=26;horizontalStack=0;resizeParent=1;resizeParentMax=0;resizeLast=0;collapsible=1;marginBottom=0;" vertex="1" parent="WIyWlLk6GJQsqaUBKTNV-1">
          <mxGeometry x="254" y="600" width="160" height="86" as="geometry" />
        </mxCell>
        <mxCell id="qGJqeF6LjcEUlHx-GQMv-296" value="- volume: int" style="text;strokeColor=none;fillColor=none;align=left;verticalAlign=top;spacingLeft=4;spacingRight=4;overflow=hidden;rotatable=0;points=[[0,0.5],[1,0.5]];portConstraint=eastwest;" vertex="1" parent="qGJqeF6LjcEUlHx-GQMv-295">
          <mxGeometry y="26" width="160" height="26" as="geometry" />
        </mxCell>
        <mxCell id="qGJqeF6LjcEUlHx-GQMv-297" value="" style="line;strokeWidth=1;fillColor=none;align=left;verticalAlign=middle;spacingTop=-1;spacingLeft=3;spacingRight=3;rotatable=0;labelPosition=right;points=[];portConstraint=eastwest;" vertex="1" parent="qGJqeF6LjcEUlHx-GQMv-295">
          <mxGeometry y="52" width="160" height="8" as="geometry" />
        </mxCell>
        <mxCell id="qGJqeF6LjcEUlHx-GQMv-298" value="+ injectGasonline(int): void" style="text;strokeColor=none;fillColor=none;align=left;verticalAlign=top;spacingLeft=4;spacingRight=4;overflow=hidden;rotatable=0;points=[[0,0.5],[1,0.5]];portConstraint=eastwest;" vertex="1" parent="qGJqeF6LjcEUlHx-GQMv-295">
          <mxGeometry y="60" width="160" height="26" as="geometry" />
        </mxCell>
        <mxCell id="qGJqeF6LjcEUlHx-GQMv-299" value="HydrogenCar" style="swimlane;fontStyle=1;align=center;verticalAlign=top;childLayout=stackLayout;horizontal=1;startSize=26;horizontalStack=0;resizeParent=1;resizeParentMax=0;resizeLast=0;collapsible=1;marginBottom=0;" vertex="1" parent="WIyWlLk6GJQsqaUBKTNV-1">
          <mxGeometry x="480" y="600" width="160" height="86" as="geometry" />
        </mxCell>
        <mxCell id="qGJqeF6LjcEUlHx-GQMv-300" value="- volume: int" style="text;strokeColor=none;fillColor=none;align=left;verticalAlign=top;spacingLeft=4;spacingRight=4;overflow=hidden;rotatable=0;points=[[0,0.5],[1,0.5]];portConstraint=eastwest;" vertex="1" parent="qGJqeF6LjcEUlHx-GQMv-299">
          <mxGeometry y="26" width="160" height="26" as="geometry" />
        </mxCell>
        <mxCell id="qGJqeF6LjcEUlHx-GQMv-301" value="" style="line;strokeWidth=1;fillColor=none;align=left;verticalAlign=middle;spacingTop=-1;spacingLeft=3;spacingRight=3;rotatable=0;labelPosition=right;points=[];portConstraint=eastwest;" vertex="1" parent="qGJqeF6LjcEUlHx-GQMv-299">
          <mxGeometry y="52" width="160" height="8" as="geometry" />
        </mxCell>
        <mxCell id="qGJqeF6LjcEUlHx-GQMv-302" value="+ filling(int): void" style="text;strokeColor=none;fillColor=none;align=left;verticalAlign=top;spacingLeft=4;spacingRight=4;overflow=hidden;rotatable=0;points=[[0,0.5],[1,0.5]];portConstraint=eastwest;" vertex="1" parent="qGJqeF6LjcEUlHx-GQMv-299">
          <mxGeometry y="60" width="160" height="26" as="geometry" />
        </mxCell>
        <mxCell id="qGJqeF6LjcEUlHx-GQMv-303" value="" style="endArrow=block;endSize=16;endFill=0;html=1;exitX=0.5;exitY=0;exitDx=0;exitDy=0;entryX=0.491;entryY=1.123;entryDx=0;entryDy=0;entryPerimeter=0;" edge="1" parent="WIyWlLk6GJQsqaUBKTNV-1" source="qGJqeF6LjcEUlHx-GQMv-295" target="qGJqeF6LjcEUlHx-GQMv-290">
          <mxGeometry width="160" relative="1" as="geometry">
            <mxPoint x="140" y="610" as="sourcePoint" />
            <mxPoint x="292.48" y="534.182" as="targetPoint" />
          </mxGeometry>
        </mxCell>
        <mxCell id="qGJqeF6LjcEUlHx-GQMv-304" value="Teslr" style="swimlane;fontStyle=1;align=center;verticalAlign=top;childLayout=stackLayout;horizontal=1;startSize=26;horizontalStack=0;resizeParent=1;resizeParentMax=0;resizeLast=0;collapsible=1;marginBottom=0;" vertex="1" parent="WIyWlLk6GJQsqaUBKTNV-1">
          <mxGeometry x="18" y="759" width="215" height="164" as="geometry" />
        </mxCell>
        <mxCell id="qGJqeF6LjcEUlHx-GQMv-305" value="- electricCars: ArrayList&lt;ElectricCar&gt;" style="text;strokeColor=none;fillColor=none;align=left;verticalAlign=top;spacingLeft=4;spacingRight=4;overflow=hidden;rotatable=0;points=[[0,0.5],[1,0.5]];portConstraint=eastwest;" vertex="1" parent="qGJqeF6LjcEUlHx-GQMv-304">
          <mxGeometry y="26" width="215" height="26" as="geometry" />
        </mxCell>
        <mxCell id="qGJqeF6LjcEUlHx-GQMv-306" value="- location: String" style="text;strokeColor=none;fillColor=none;align=left;verticalAlign=top;spacingLeft=4;spacingRight=4;overflow=hidden;rotatable=0;points=[[0,0.5],[1,0.5]];portConstraint=eastwest;" vertex="1" parent="qGJqeF6LjcEUlHx-GQMv-304">
          <mxGeometry y="52" width="215" height="26" as="geometry" />
        </mxCell>
        <mxCell id="qGJqeF6LjcEUlHx-GQMv-307" value="- stock: float" style="text;strokeColor=none;fillColor=none;align=left;verticalAlign=top;spacingLeft=4;spacingRight=4;overflow=hidden;rotatable=0;points=[[0,0.5],[1,0.5]];portConstraint=eastwest;" vertex="1" parent="qGJqeF6LjcEUlHx-GQMv-304">
          <mxGeometry y="78" width="215" height="26" as="geometry" />
        </mxCell>
        <mxCell id="qGJqeF6LjcEUlHx-GQMv-308" value="" style="line;strokeWidth=1;fillColor=none;align=left;verticalAlign=middle;spacingTop=-1;spacingLeft=3;spacingRight=3;rotatable=0;labelPosition=right;points=[];portConstraint=eastwest;" vertex="1" parent="qGJqeF6LjcEUlHx-GQMv-304">
          <mxGeometry y="104" width="215" height="8" as="geometry" />
        </mxCell>
        <mxCell id="qGJqeF6LjcEUlHx-GQMv-309" value="+ addCar(ElectricCar): void" style="text;strokeColor=none;fillColor=none;align=left;verticalAlign=top;spacingLeft=4;spacingRight=4;overflow=hidden;rotatable=0;points=[[0,0.5],[1,0.5]];portConstraint=eastwest;" vertex="1" parent="qGJqeF6LjcEUlHx-GQMv-304">
          <mxGeometry y="112" width="215" height="26" as="geometry" />
        </mxCell>
        <mxCell id="qGJqeF6LjcEUlHx-GQMv-310" value="+ dropCar(): ElectricCar" style="text;strokeColor=none;fillColor=none;align=left;verticalAlign=top;spacingLeft=4;spacingRight=4;overflow=hidden;rotatable=0;points=[[0,0.5],[1,0.5]];portConstraint=eastwest;" vertex="1" parent="qGJqeF6LjcEUlHx-GQMv-304">
          <mxGeometry y="138" width="215" height="26" as="geometry" />
        </mxCell>
        <mxCell id="qGJqeF6LjcEUlHx-GQMv-311" value="" style="endArrow=diamondThin;endFill=0;endSize=24;html=1;exitX=0.469;exitY=1.021;exitDx=0;exitDy=0;exitPerimeter=0;entryX=0.5;entryY=0;entryDx=0;entryDy=0;" edge="1" parent="WIyWlLk6GJQsqaUBKTNV-1" source="qGJqeF6LjcEUlHx-GQMv-294" target="qGJqeF6LjcEUlHx-GQMv-304">
          <mxGeometry width="160" relative="1" as="geometry">
            <mxPoint x="10" y="530" as="sourcePoint" />
            <mxPoint x="170" y="530" as="targetPoint" />
          </mxGeometry>
        </mxCell>
        <mxCell id="qGJqeF6LjcEUlHx-GQMv-312" value="" style="endArrow=none;html=1;exitX=0.5;exitY=0;exitDx=0;exitDy=0;entryX=0.5;entryY=0;entryDx=0;entryDy=0;" edge="1" parent="WIyWlLk6GJQsqaUBKTNV-1">
          <mxGeometry width="50" height="50" relative="1" as="geometry">
            <mxPoint x="130" y="599" as="sourcePoint" />
            <mxPoint x="560" y="599" as="targetPoint" />
            <Array as="points">
              <mxPoint x="130" y="580" />
              <mxPoint x="560" y="580" />
            </Array>
          </mxGeometry>
        </mxCell>
        <mxCell id="qGJqeF6LjcEUlHx-GQMv-313" value="Hyundai" style="swimlane;fontStyle=1;align=center;verticalAlign=top;childLayout=stackLayout;horizontal=1;startSize=26;horizontalStack=0;resizeParent=1;resizeParentMax=0;resizeLast=0;collapsible=1;marginBottom=0;" vertex="1" parent="WIyWlLk6GJQsqaUBKTNV-1">
          <mxGeometry x="322" y="759" width="236" height="242" as="geometry" />
        </mxCell>
        <mxCell id="qGJqeF6LjcEUlHx-GQMv-314" value="- gasonlineCars: ArrayList&lt;GasonlineCar&gt;" style="text;strokeColor=none;fillColor=none;align=left;verticalAlign=top;spacingLeft=4;spacingRight=4;overflow=hidden;rotatable=0;points=[[0,0.5],[1,0.5]];portConstraint=eastwest;" vertex="1" parent="qGJqeF6LjcEUlHx-GQMv-313">
          <mxGeometry y="26" width="236" height="26" as="geometry" />
        </mxCell>
        <mxCell id="qGJqeF6LjcEUlHx-GQMv-315" value="- hydrogenCars: ArrayList&lt;HydrogenCar&gt;" style="text;strokeColor=none;fillColor=none;align=left;verticalAlign=top;spacingLeft=4;spacingRight=4;overflow=hidden;rotatable=0;points=[[0,0.5],[1,0.5]];portConstraint=eastwest;" vertex="1" parent="qGJqeF6LjcEUlHx-GQMv-313">
          <mxGeometry y="52" width="236" height="26" as="geometry" />
        </mxCell>
        <mxCell id="qGJqeF6LjcEUlHx-GQMv-316" value="- location: String" style="text;strokeColor=none;fillColor=none;align=left;verticalAlign=top;spacingLeft=4;spacingRight=4;overflow=hidden;rotatable=0;points=[[0,0.5],[1,0.5]];portConstraint=eastwest;" vertex="1" parent="qGJqeF6LjcEUlHx-GQMv-313">
          <mxGeometry y="78" width="236" height="26" as="geometry" />
        </mxCell>
        <mxCell id="qGJqeF6LjcEUlHx-GQMv-317" value="- stock: float" style="text;strokeColor=none;fillColor=none;align=left;verticalAlign=top;spacingLeft=4;spacingRight=4;overflow=hidden;rotatable=0;points=[[0,0.5],[1,0.5]];portConstraint=eastwest;" vertex="1" parent="qGJqeF6LjcEUlHx-GQMv-313">
          <mxGeometry y="104" width="236" height="26" as="geometry" />
        </mxCell>
        <mxCell id="qGJqeF6LjcEUlHx-GQMv-318" value="" style="line;strokeWidth=1;fillColor=none;align=left;verticalAlign=middle;spacingTop=-1;spacingLeft=3;spacingRight=3;rotatable=0;labelPosition=right;points=[];portConstraint=eastwest;" vertex="1" parent="qGJqeF6LjcEUlHx-GQMv-313">
          <mxGeometry y="130" width="236" height="8" as="geometry" />
        </mxCell>
        <mxCell id="qGJqeF6LjcEUlHx-GQMv-319" value="+ addGasonlineCar(ElectricCar): void" style="text;strokeColor=none;fillColor=none;align=left;verticalAlign=top;spacingLeft=4;spacingRight=4;overflow=hidden;rotatable=0;points=[[0,0.5],[1,0.5]];portConstraint=eastwest;" vertex="1" parent="qGJqeF6LjcEUlHx-GQMv-313">
          <mxGeometry y="138" width="236" height="26" as="geometry" />
        </mxCell>
        <mxCell id="qGJqeF6LjcEUlHx-GQMv-320" value="+ dropGasonlineCar(): GasonlineCar" style="text;strokeColor=none;fillColor=none;align=left;verticalAlign=top;spacingLeft=4;spacingRight=4;overflow=hidden;rotatable=0;points=[[0,0.5],[1,0.5]];portConstraint=eastwest;" vertex="1" parent="qGJqeF6LjcEUlHx-GQMv-313">
          <mxGeometry y="164" width="236" height="26" as="geometry" />
        </mxCell>
        <mxCell id="qGJqeF6LjcEUlHx-GQMv-321" value="+ addHydrongenCar(): void" style="text;strokeColor=none;fillColor=none;align=left;verticalAlign=top;spacingLeft=4;spacingRight=4;overflow=hidden;rotatable=0;points=[[0,0.5],[1,0.5]];portConstraint=eastwest;" vertex="1" parent="qGJqeF6LjcEUlHx-GQMv-313">
          <mxGeometry y="190" width="236" height="26" as="geometry" />
        </mxCell>
        <mxCell id="qGJqeF6LjcEUlHx-GQMv-322" value="+ dropHydrongenCar(): HydrogenCar" style="text;strokeColor=none;fillColor=none;align=left;verticalAlign=top;spacingLeft=4;spacingRight=4;overflow=hidden;rotatable=0;points=[[0,0.5],[1,0.5]];portConstraint=eastwest;" vertex="1" parent="qGJqeF6LjcEUlHx-GQMv-313">
          <mxGeometry y="216" width="236" height="26" as="geometry" />
        </mxCell>
        <mxCell id="qGJqeF6LjcEUlHx-GQMv-323" value="" style="endArrow=none;html=1;entryX=0.504;entryY=1.026;entryDx=0;entryDy=0;entryPerimeter=0;" edge="1" parent="WIyWlLk6GJQsqaUBKTNV-1" target="qGJqeF6LjcEUlHx-GQMv-302">
          <mxGeometry width="50" height="50" relative="1" as="geometry">
            <mxPoint x="440" y="710" as="sourcePoint" />
            <mxPoint x="470" y="740" as="targetPoint" />
            <Array as="points">
              <mxPoint x="561" y="710" />
            </Array>
          </mxGeometry>
        </mxCell>
        <mxCell id="qGJqeF6LjcEUlHx-GQMv-324" value="" style="endArrow=none;html=1;exitX=0.476;exitY=1.141;exitDx=0;exitDy=0;exitPerimeter=0;" edge="1" parent="WIyWlLk6GJQsqaUBKTNV-1">
          <mxGeometry width="50" height="50" relative="1" as="geometry">
            <mxPoint x="330.15999999999985" y="687.6659999999999" as="sourcePoint" />
            <mxPoint x="440" y="710" as="targetPoint" />
            <Array as="points">
              <mxPoint x="330" y="710" />
            </Array>
          </mxGeometry>
        </mxCell>
        <mxCell id="qGJqeF6LjcEUlHx-GQMv-325" value="" style="endArrow=diamondThin;endFill=0;endSize=24;html=1;entryX=0.5;entryY=0;entryDx=0;entryDy=0;" edge="1" parent="WIyWlLk6GJQsqaUBKTNV-1" target="qGJqeF6LjcEUlHx-GQMv-313">
          <mxGeometry width="160" relative="1" as="geometry">
            <mxPoint x="440" y="710" as="sourcePoint" />
            <mxPoint x="135.5" y="769" as="targetPoint" />
          </mxGeometry>
        </mxCell>
      </root>
    </mxGraphModel>
  </diagram>
</mxfile>
